PathFileType	4	(X/Y/Z)	/Users/rkoike/Documents/python/sports2d/worker-zone-detection_Sports2D/worker-zone-detection_Sports2D_px_person01.trc
DataRate	CameraRate	NumFrames	NumMarkers	Units	OrigDataRate	OrigDataStartFrame	OrigNumFrames
60	60	7	22	m	60	2274	4549
Frame#	Time	Hip			RHip			RKnee			RAnkle			RBigToe			RSmallToe			RHeel			LHip			LKnee			LAnkle			LBigToe			LSmallToe			LHeel			Neck			Head			Nose			RShoulder			RElbow			RWrist			LShoulder			LElbow			LWrist			
		X1	Y1	Z1	X2	Y2	Z2	X3	Y3	Z3	X4	Y4	Z4	X5	Y5	Z5	X6	Y6	Z6	X7	Y7	Z7	X8	Y8	Z8	X9	Y9	Z9	X10	Y10	Z10	X11	Y11	Z11	X12	Y12	Z12	X13	Y13	Z13	X14	Y14	Z14	X15	Y15	Z15	X16	Y16	Z16	X17	Y17	Z17	X18	Y18	Z18	X19	Y19	Z19	X20	Y20	Z20	X21	Y21	Z21	X22	Y22	Z22
2274	37.9	1927.5138443056783	448.4239957020627	0.0	1987.378929707009	454.9090301042532	0.0	1922.5895075067021	588.3214314051667	0.0	1870.7932827133793	649.7834131836792	0.0	1882.0509490093211	681.2647332513321	0.0	1881.3334125934916	682.7706391047448	0.0	1869.473658509843	664.9590982485868	0.0	1928.6245463924383	461.7531215045621	0.0	1923.4767031818744	585.5012934569627	0.0	1869.2483558345398	649.4059816327704	0.0	1895.866154968011	680.794596135163	0.0	1885.2983401224838	675.5223542052229	0.0	1859.5764728462284	661.6600358722483	0.0	1938.3989888882575	320.5216671914493	0.0	1861.7641875162974	655.0288598395795	0.0	1943.483833207152	279.6930210627002	0.0	1926.5489948851182	528.8334491190978	0.0	1920.711117674033	587.0332904068853	0.0	1875.0248347730846	644.3671126182613	0.0	1926.8035210620883	579.1915343432314	0.0	1921.6455671789083	587.7202185987163	0.0	1871.654682136535	644.3435247449684	0.0
2275	37.916666666666664	1927.5131359980812	448.4248467884174	0.0	1987.378771660813	454.9088527034023	0.0	1922.537141844048	588.2331901911192	0.0	1870.7932810007778	649.783414261518	0.0	1881.9528515993095	681.1416290369689	0.0	1881.2220175622354	682.820582804025	0.0	1869.473658576812	664.9590982008617	0.0	1928.623761361965	461.75391996035495	0.0	1923.5235340441263	585.3224462767715	0.0	1869.0606967815154	649.6376968952839	0.0	1895.866154968643	680.7945961349528	0.0	1885.1931240844717	675.58322321309	0.0	1859.576472555922	661.6600360545026	0.0	1938.6890205047066	319.8336938541143	0.0	1861.9777621822739	654.8311431074329	0.0	1943.8518018917234	279.0702862841896	0.0	1926.4807356630474	528.3263097187055	0.0	1920.6660281294808	586.9710767396616	0.0	1874.8201290651389	644.3188974233523	0.0	1927.1249874387897	578.7443040743384	0.0	1921.6571797634604	587.7111533541264	0.0	1871.4315092625232	644.5651997469539	0.0
2276	37.93333333333333	1927.512222507678	448.42591861194853	0.0	1987.3802008680605	454.9062042663334	0.0	1922.6595324964842	587.710819026704	0.0	1870.7932783703116	649.783415909862	0.0	1881.7526292252046	681.0478558918157	0.0	1881.036004221151	682.9111436942053	0.0	1869.4736586890301	664.9590981215702	0.0	1928.622752773891	461.7549279990877	0.0	1923.6727618228101	584.7580426070249	0.0	1868.8760238781365	649.8629895714043	0.0	1895.866154968401	680.7945961350032	0.0	1885.014083893395	675.6868005666184	0.0	1859.576471702173	661.6600365899504	0.0	1939.6824794749598	317.6932114316139	0.0	1862.7098873289335	654.2600653248754	0.0	1945.092117629885	277.1293406120189	0.0	1926.6433983940944	526.7664334571886	0.0	1920.7352410497176	586.4741651798595	0.0	1874.7110827741765	643.8924081774378	0.0	1928.2361929560748	577.3150368682633	0.0	1921.647177431095	587.7218046434768	0.0	1871.3362647656263	644.6315202068173	0.0
2277	37.95	1927.5114090560712	448.42682458480635	0.0	1987.3845409729006	454.8993009231918	0.0	1923.1252666238925	586.4782200146973	0.0	1870.793275235706	649.7834178628248	0.0	1881.4358841826336	681.0864297196904	0.0	1880.7908147856394	683.0409048984633	0.0	1869.4736588375129	664.9590980176372	0.0	1928.6218618712585	461.7557848582331	0.0	1923.972502860131	583.6285527696754	0.0	1868.8192932961983	649.9254647986716	0.0	1895.866154966199	680.7945961356518	0.0	1884.7732335429653	675.8261359955164	0.0	1859.5764700415398	661.6600376310125	0.0	1941.7306125745474	313.43315927648024	0.0	1864.2196443282985	653.1578069013401	0.0	1947.6349566740691	273.26373474075035	0.0	1927.2591410494513	523.6759203419774	0.0	1921.036108496645	585.2490086895519	0.0	1874.9050450162576	642.8283287268257	0.0	1930.534197295799	574.4410308420221	0.0	1921.5913514470585	587.7732566260814	0.0	1871.6131781099828	644.278149458945	0.0
2278	37.96666666666667	1927.5113696450733	448.4267366146556	0.0	1987.393095804035	454.88660245116915	0.0	1924.1183208573289	584.3307828975767	0.0	1870.793272928722	649.7834192771953	0.0	1881.0439016065575	681.4203971242694	0.0	1880.5625370765201	683.1808114214492	0.0	1869.4736589767924	664.9590979219453	0.0	1928.621838382336	461.7557154170381	0.0	1924.4409370514638	581.8684307267577	0.0	1869.1095803369421	649.5526835154303	0.0	1895.8661549606893	680.7945961373257	0.0	1884.5400777995321	675.9610199816051	0.0	1859.5764675116989	661.6600392164371	0.0	1944.9949343102116	306.8230246665249	0.0	1866.6263638559592	651.489252061726	0.0	1951.6710353087499	267.2623857134732	0.0	1928.5699865527238	518.8975474356942	0.0	1921.701495226534	583.0605035448381	0.0	1875.7062564297196	640.9152236833114	0.0	1934.2051342416846	569.9457341797538	0.0	1921.4610087372148	587.88991635755	0.0	1872.610633188375	643.1390639102988	0.0
2279	37.983333333333334	1927.5132310855524	448.42429834641837	0.0	1987.4062689612474	454.86816559717585	0.0	1925.7396990265538	581.3708143583854	0.0	1870.79327413455	649.7834184623614	0.0	1880.7258713474093	682.2516545748837	0.0	1880.5244375748498	683.2538470488115	0.0	1869.47365900274	664.9590979087646	0.0	1928.6239315313353	461.7534474290226	0.0	1925.0118411157466	579.7310956392356	0.0	1870.0507661546337	648.3691683159326	0.0	1895.8661549507679	680.7945961403893	0.0	1884.4779605052006	675.9969557371222	0.0	1859.576464529817	661.6600410842769	0.0	1949.0717668759169	298.8404905910592	0.0	1869.6328359761176	649.5394843542507	0.0	1956.6863263142156	260.009945147222	0.0	1930.7078857294612	513.1536889780945	0.0	1922.8150001502174	579.9687950202232	0.0	1877.454812601128	638.1958487617688	0.0	1938.8025123144168	564.461185616217	0.0	1921.2353478085931	588.088287236619	0.0	1874.7016094985106	640.8411517187518	0.0
2280	38.0	1927.5184805835731	448.4177602832983	0.0	1987.4220194591767	454.84787862963867	0.0	1927.8233862147777	578.3772474317898	0.0	1870.7932830618945	649.7834127799467	0.0	1880.794863790228	683.7442448577357	0.0	1880.9719424353095	683.1171512967109	0.0	1869.473658737184	664.9590981040805	0.0	1928.6297840218028	461.74733595828604	0.0	1925.4578132820661	578.0770073492109	0.0	1871.9535446365173	645.9952591092732	0.0	1895.8661549366436	680.7945961448169	0.0	1884.8707809009777	675.7697034236106	0.0	1859.5764624019382	661.6600424153766	0.0	1952.4521278180548	292.7510127141433	0.0	1872.1270595737462	648.1829207239384	0.0	1960.7955671867164	254.46721191573835	0.0	1933.4518953877532	508.82534982354053	0.0	1924.2862340072675	576.7099476110523	0.0	1880.3553687122862	635.300783731942	0.0	1942.6391654702093	560.1650893334836	0.0	1920.9262808564679	588.3549391005814	0.0	1878.0748766607203	637.2380084903815	0.0
